PathFileType	4	(X/Y/Z)	Patient4_TMGait_0pt4_02_left_35.trc.trc
DataRate	CameraRate	NumFrames	NumMarkers	Units	OrigDataRate	OrigDataStartFrame	OrigNumFrames
74.074074074074	74.074074074074	5	33	mm	74.074074074074	124	       141
Frame#	Time	Sacral			L.Shoulder			Chest			R.Shoulder			Neck			R.ASIS			L.ASIS			R.Thigh.Superior			R.Thigh.Lateral			R.Thigh.Inferior			R.Patella			L.Thigh.Superior			L.Thigh.Lateral			L.Thigh.Inferior			L.Patella			L.Shank.Superior			L.Shank.Lateral			L.Shank.Inferior			R.Shank.Superior			R.Shank.Lateral			R.Shank.Inferior			R.Heel			R.Midfoot.Superior			R.Midfoot.Lateral			R.Toe			L.Heel			L.Midfoot.Lateral			L.Midfoot.Superior			L.Toe			L.Elbow			L.Wrist			R.Elbow			R.Wrist			
		X1	Y1	Z1	X2	Y2	Z2	X3	Y3	Z3	X4	Y4	Z4	X5	Y5	Z5	X6	Y6	Z6	X7	Y7	Z7	X8	Y8	Z8	X9	Y9	Z9	X10	Y10	Z10	X11	Y11	Z11	X12	Y12	Z12	X13	Y13	Z13	X14	Y14	Z14	X15	Y15	Z15	X16	Y16	Z16	X17	Y17	Z17	X18	Y18	Z18	X19	Y19	Z19	X20	Y20	Z20	X21	Y21	Z21	X22	Y22	Z22	X23	Y23	Z23	X24	Y24	Z24	X25	Y25	Z25	X26	Y26	Z26	X27	Y27	Z27	X28	Y28	Z28	X29	Y29	Z29	X30	Y30	Z30	X31	Y31	Z31	X32	Y32	Z32	X33	Y33	Z33	

124	48.450500000000	826.811931691112	1004.181209690135	509.245942407535	975.822623240672	1430.112586272143	309.741100593059	1104.555809578170	1361.384637089317	450.628584361843	1051.662788647511	1431.940708162995	637.579156826258	983.392906936077	1490.095368057800	467.698663712443	1065.262786498118	934.446080829852	599.037375724173	1021.268527509879	955.913736576581	326.828615908050	1056.966446378554	722.038689484230	573.699742025325	953.336754333879	630.413922920914	642.263092769645	1007.516475561604	563.234098977020	560.478317399464	989.655224272319	479.914258160348	566.567999675898	1096.212007231295	766.756637681554	351.662361138211	1035.598842112932	638.535237272487	280.424991886737	1142.087299637722	578.633430827945	333.795032581407	1161.625397002802	508.717189097034	331.543949285178	1137.281660728388	435.406489372995	321.138493271511	1053.519295518855	315.567537209291	271.991839330740	1128.733499540277	205.423432814612	322.344783700800	950.353261842003	397.960128115489	574.803318789379	871.944980650518	302.932770092214	642.507598324776	898.121775950012	203.787362998362	575.536578655221	749.854441372246	44.819606659703	550.517094993255	922.165976343016	95.821462232066	582.025783083801	834.711607061251	37.070809832231	622.930528490387	1042.751378644077	40.453040580488	606.769221487373	1024.386816882255	41.188091304129	362.241780089454	1094.424371125411	38.582265019323	278.655696002345	1176.876247655631	103.239603734754	300.174745044634	1304.195960708583	55.639011374253	265.847725047518	848.746384140824	1098.726054664520	213.492379763678	835.426582510531	837.464853952957	205.011882535103	1186.374722011336	1120.328420782017	757.665247461475	1428.681052446902	1179.383477352915	716.772038127733	
125	48.464000000000	827.482985777877	1003.528100753775	505.849070478210	976.322145119858	1429.411441477124	306.497190997197	1104.599799579202	1361.285884836444	448.083882285464	1050.485381664336	1431.681854133442	634.799809386024	982.989395931285	1489.633386162852	464.526331154869	1065.846930601036	934.010280870303	596.705728474994	1022.662730337638	955.264704748731	324.614650510219	1057.434423127096	721.397003809620	571.750915719243	953.216082274099	630.145679593433	640.130153991279	1007.385262447684	562.489226651067	558.782902728777	989.056458964630	478.768348162147	564.824306302031	1096.734759908773	764.465578377962	350.067474114349	1034.463536200130	637.067187919896	279.614713258946	1140.259525581817	576.389936304019	333.715062460900	1158.541244502409	505.793657612283	331.673092271044	1133.585205096433	432.511909562288	321.173729539522	1048.511818944673	313.410717906558	272.476308739695	1122.048593960744	202.571385171709	323.560201608823	948.687802835728	397.316234022073	573.340252581487	869.252819131999	303.415035131751	641.505827225463	894.268517433583	203.711645198879	574.973456889215	744.546733751393	45.627148410338	550.735392970582	917.031473915742	95.936682260766	582.066623846694	829.418604098916	37.365965319296	623.010200062011	1037.403880686111	40.215734423617	606.826306597077	1015.241022357185	39.962475442857	363.635767282017	1085.330867171409	37.027397371237	279.995812844281	1168.617686523180	100.373708730044	302.126083382324	1295.682241137133	51.153164833132	267.693580936350	852.231144415695	1097.016716929934	209.148327719112	842.731344563344	835.468872284340	199.965800059319	1183.692885636768	1118.471080920688	754.365584325279	1427.706945608310	1173.142167648759	715.283176421664	
126	48.477500000000	828.109209278306	1003.150143614894	502.446236454814	976.972909750431	1428.945442068510	303.179218732488	1104.746283327026	1361.364606473979	445.477891754847	1049.453143195726	1431.704024801929	631.923430151765	982.706758091014	1489.428069862181	461.247815141349	1066.374318724644	933.781166576485	594.140009802624	1023.826935291873	954.963861001158	322.195681190153	1058.018426593385	720.994431674899	569.552206964784	953.401494587144	630.020238003210	637.826519052490	1007.612208828513	561.921805745692	556.899561538358	988.836429028065	477.740249679992	562.947902252304	1097.032756253312	762.686250356517	348.268541151312	1033.473295763004	636.197459642099	278.339739183187	1138.456683526564	574.722918944387	333.275004672002	1155.601633565685	503.569332032099	331.343824949823	1130.234540648324	430.310744921739	320.772356034225	1044.255981675285	311.784266984333	272.314802131531	1116.205486425311	200.435471679106	324.267838664221	947.378455654441	396.770726029948	571.794058752804	866.812301602183	304.098653640093	640.422579203531	890.616738567766	203.799317173672	574.414160453870	739.297674801212	46.773658479030	550.994270324141	912.039711351122	96.126794598059	582.147894262961	824.190419669506	37.807858473724	623.097880071794	1032.114298096002	39.936113457015	606.888289866490	1007.336889321170	39.057351619373	364.461536953360	1077.512665749394	36.009553517877	280.811326670108	1161.350641604730	98.386533265015	303.517418045124	1288.288633913021	48.009594509655	269.051867852569	856.533354893419	1095.310318121451	204.571773693380	851.100130570945	833.523915521604	194.627427337570	1180.472971286848	1116.621784246851	751.126937275088	1426.490114818293	1165.409918173941	714.101761576007	
127	48.491000000000	828.687522874772	1003.076091875824	499.049632648452	977.725780334244	1428.768637373937	299.833949405073	1104.975176905125	1361.639308937514	442.814466564705	1048.605220503616	1432.023803259513	628.964258084251	982.531715799185	1489.505628262450	457.908611770705	1066.817531178278	933.799343013340	591.329599864542	1024.741683822452	955.031306803822	319.529353818750	1058.631814155948	720.869269362976	567.106624082404	953.824141388100	630.079535206332	635.381264538001	1008.132759320133	561.573093351908	554.849231575424	988.959560926626	476.873322642342	561.007132487088	1097.145940956092	761.532414154560	346.174485430512	1032.637205520651	635.901448511678	276.609489857361	1136.729919521115	573.628241436443	332.337030175938	1152.841250269729	502.034382890756	330.507984134744	1127.249322913402	428.780080041674	319.956985530119	1040.717300576316	310.684164882787	271.554448237496	1111.149389876212	198.988527436631	324.513986889582	946.393942879958	396.358663406987	570.218195843517	864.587896370652	305.014105882992	639.283473225214	887.162648076269	204.085808425336	573.886652865726	734.118248766266	48.302581060614	551.282941445782	907.208831432720	96.400150168985	582.274392039931	819.031512590064	38.422100395136	623.187462865414	1026.884766424745	39.622260080475	606.952629400861	1000.576346624148	38.485949275628	364.815577964815	1070.849697879116	35.463307966490	281.186334257271	1155.009760977053	97.183392653556	304.374662082646	1281.910301410193	46.029129579198	269.922873158788	861.621093327534	1093.690970448754	199.796443985499	860.509547826060	831.735209610965	189.046661443741	1176.759311806922	1114.842865919234	747.936546040002	1424.947843746002	1156.175845464102	713.192658058089	
128	48.504500000000	829.221944658350	1003.300282033634	495.640235651262	978.523285776734	1428.906955690113	296.495730762702	1105.255261265327	1362.116055284857	440.095778804590	1047.942970766816	1432.626642366102	625.936975852718	982.435398193004	1489.864592442540	454.548044334860	1067.162176592242	934.081188275358	588.280159169897	1025.434714268484	955.452032133118	316.590832306830	1059.211363942955	721.036624063988	564.433148423079	954.427051624039	630.344459832685	632.825831879610	1008.899356437884	561.464849093158	552.657429167321	989.411552694039	476.185752430733	559.074102204230	1097.141694421001	761.022406360741	343.703641577751	1031.900534012102	636.073714467801	274.485003007778	1135.079466633757	573.007523672122	330.820958918509	1150.238208806016	501.089213617740	329.191497487794	1124.574448363077	427.820200779636	318.799192277939	1037.758657769296	310.041667456467	270.310293272890	1106.728553516967	198.129144405116	324.392068352728	945.713030056621	396.097907660030	568.663149298133	862.554378367186	306.178519034528	638.110789602965	883.905850856901	204.593499473105	573.411730990779	729.021058853068	50.245111271039	551.584591785654	902.550095413029	96.759594646513	582.443075775680	813.943342682446	39.233718281446	623.270424186748	1021.709857567591	39.286056834071	607.015481492974	994.742328692782	38.216457868202	364.818271543012	1065.108549528874	35.286789895467	281.229799012322	1149.425392021084	96.605614099566	304.780617999307	1276.340419453757	44.953237647703	270.364064434883	867.437321942433	1092.229629539197	194.844401413084	870.945988156494	830.197255169770	183.267801946203	1172.604559500333	1113.183960569843	744.784309622604	1422.960431743376	1145.451438280316	712.508160865341	
